# AST/ASF file generated using VICON BodyLanguage
# -----------------------------------------------
:version 1.10
:name VICON
:units
  mass 1.0
  length 0.45
  angle deg
:documentation
   .ast/.asf automatically generated from VICON data using
   VICON BodyBuilder and BodyLanguage model FoxedUp or BRILLIANT.MOD
:root
   order TX TY TZ RX RY RZ
   axis XYZ
   position 0 0 0  
   orientation 0 0 0 
:bonedata
  begin
     id 1 
     name lhipjoint
     direction 0.645893 -0.654526 0.392961 
     length 2.38111 
     axis 0 0 0  XYZ
  end
  begin
     id 2 
     name lfemur
     direction 0.34202 -0.939693 0  
     length 6.6822  
     axis 0 0 20  XYZ
    dof rx ry rz
    limits (-160.0 20.0)
           (-70.0 70.0)
           (-60.0 70.0)
  end
  begin
     id 3 
     name ltibia
     direction 0.34202 -0.939693 0   
     length 6.93904   
     axis 0 0 20   XYZ
    dof rx
    limits (-10.0 170.0)
  end
  begin
     id 4 
     name lfoot
     direction 0.0694967 -0.190941 0.979138   
     length 2.13616   
     axis -90 7.62852e-016 20   XYZ
    dof rx rz
    limits (-45.0 90.0)
           (-70.0 20.0)
  end
  begin
     id 5 
     name ltoes
     direction 1.535e-011 -4.2202e-011 1   
     length 1.07536   
     axis -90 7.62852e-016 20   XYZ
    dof rx
    limits (-90.0 20.0)
  end
  begin
     id 6 
     name rhipjoint
     direction -0.700219 -0.612087 0.367481   
     length 2.54621  
     axis 0 0 0  XYZ 
  end
  begin
     id 7 
     name rfemur
     direction -0.34202 -0.939693 0   
     length 6.55353   
     axis 0 0 -20   XYZ
    dof rx ry rz
    limits (-160.0 20.0)
           (-70.0 70.0)
           (-70.0 60.0)
  end
  begin
     id 8 
     name rtibia
     direction -0.34202 -0.939693 0   
     length 6.8736   
     axis 0 0 -20   XYZ
    dof rx
    limits (-10.0 170.0)
 end
 begin
     id 9 
     name rfoot
     direction -0.0679995 -0.186827 0.980037   
     length 2.1218  
     axis -90 -7.62852e-016 -20   XYZ
    dof rx rz
    limits (-45.0 90.0)
           (-20.0 70.0)
  end
  begin
     id 10 
     name rtoes
     direction -1.53589e-011 -4.21772e-011 1   
     length 1.06864   
     axis -90 -7.62852e-016 -20   XYZ
    dof rx
    limits (-90.0 20.0)
  end
  begin
     id 11 
     name lowerback
     direction -0.0416607 0.996347 -0.0745409   
     length 2.12205   
     axis 0 0 0   XYZ
    dof rx ry rz
    limits (-20.0 45.0)
           (-30.0 30.0)
           (-30.0 30.0)
  end
  begin
     id 12 
     name upperback
     direction -0.000153993 0.999276 -0.0380568   
     length 2.12759   
     axis 0 0 0   XYZ
    dof rx ry rz
    limits (-20.0 45.0)
           (-30.0 30.0)
           (-30.0 30.0)
  end
  begin
     id 13 
     name thorax
     direction 0.0187671 0.999821 -0.00241421   
     length 2.13704   
     axis 0 0 0   XYZ
    dof rx ry rz
    limits (-20.0 45.0)
           (-30.0 30.0)
           (-30.0 30.0)
  end
  begin
     id 14 
     name lowerneck
     direction 0.0268157 0.964865 0.261374   
     length 1.65253   
     axis 0 0 0   XYZ
    dof rx ry rz
    limits (-20.0 45.0)
           (-30.0 30.0)
           (-30.0 30.0)
  end
  begin
     id 15 
     name upperneck
     direction 0.00263774 0.939908 -0.341418   
     length 1.72375   
     axis 0 0 0   XYZ
    dof rx ry rz
    limits (-20.0 45.0)
           (-30.0 30.0)
           (-30.0 30.0)
  end
  begin
     id 16
     name head
     direction -0.00526001 0.989001 -0.147818  
     length 1.74878  
     axis 0 0 0   XYZ
    dof rx ry rz
    limits (-20.0 45.0)
           (-30.0 30.0)
           (-30.0 30.0)
  end
  begin
     id 17 
     name lclavicle
     direction 0.881214 0.461162 -0.103884  
     length 3.25108  
     axis 0 0 0   XYZ
    dof ry rz
    limits (-20.0 10.0)
           (0.0 20.0)
  end
  begin
     id 18 
     name lhumerus
     direction 1 -4.4899e-011 3.38092e-027   
     length 4.87408   
     axis 180 -30 -90   XYZ
    dof rx ry rz
    limits (-60.0 90.0)
           (-90.0 90.0)
           (-90.0 90.0)
  end
  begin
     id 19
     name lradius
     direction 1 -4.48931e-011 9.96288e-027   
     length 2.76729   
     axis 180 -30 -90   XYZ
    dof rx
    limits (-10.0 170.0)
  end
  begin
     id 20
     name lwrist
     direction 1 -4.4896e-011 1.50617e-026   
     length 1.38364   
     axis -9.31234e-015 90 90   XYZ
    dof ry
    limits (-180.0 0.0)
 end
  begin
     id 21 
     name lhand
     direction 1 -4.49038e-011 3.01286e-026   
     length 0.98922   
     axis -1.92217e-014 90 90   XYZ
    dof rx rz
    limits (-90.0 90.0)
           (-45.0 45.0)
  end
  begin
     id 22 
     name lfingers
     direction 1 -4.49051e-011 6.02588e-026   
     length 0.797535   
     axis -3.84436e-014 90 90   XYZ
    dof rx
    limits (0.0 90.0)
  end
  begin
     id 23
     name lthumb
     direction 0.707107 -6.34901e-011 0.707107   
     length 1.14511   
     axis -90 45 2.19363e-014   XYZ
    dof rx rz
    limits (-45.0 45.0)
           (-45.0 45.0)
  end
  begin
     id 24 
     name rclavicle
     direction -0.893894 0.441652 -0.0767889   
     length 3.29361  
     axis 0 0 0   XYZ 
    dof ry rz
    limits (-10.0 20.0)
           (-20.0 0.0)
  end
  begin
     id 25 
     name rhumerus
     direction -1 -4.48945e-011 8.0491e-028  
     length 4.71404   
     axis 180 30 90   XYZ
    dof rx ry rz
    limits (-90.0 60.0)
           (-90.0 90.0)
           (-90.0 90.0)
  end
  begin
     id 26 
     name rradius
     direction -1 -4.48986e-011 9.27795e-027   
     length 2.83468   
     axis 180 30 90   XYZ
    dof rx
    limits (-10.0 170.0)
  end
  begin
     id 27 
     name rwrist
     direction -1 -4.49029e-011 1.5064e-026   
     length 1.41734   
     axis -9.31234e-015 -90 -90   XYZ
    dof ry
    limits (-180.0 0.0)
  end
  begin
     id 28
     name rhand
     direction -1 -4.48857e-011 3.01165e-026   
     length 0.868195   
     axis -1.92217e-014 -90 -90   XYZ
    dof rx rz
    limits (-90.0 90.0)
           (-45.0 45.0)
  end
  begin
     id 29
     name rfingers
     direction -1 -4.49048e-011 6.02585e-026   
     length 0.699961   
     axis -3.84436e-014 -90 -90   XYZ
    dof rx
    limits (0.0 90.0)
  end
  begin
     id 30
     name rthumb
     direction -0.707107 -6.34854e-011 0.707107   
     length 1.00501   
     axis -90 -45 -2.19363e-014   XYZ
    dof rx rz
    limits (-45.0 45.0)
           (-45.0 45.0)
  end
:hierarchy
  begin
    root lhipjoint rhipjoint lowerback
    lhipjoint lfemur
    lfemur ltibia
    ltibia lfoot
    lfoot ltoes
    rhipjoint rfemur
    rfemur rtibia
    rtibia rfoot
    rfoot rtoes
    lowerback upperback
    upperback thorax
    thorax lowerneck lclavicle rclavicle
    lowerneck upperneck
    upperneck head
    lclavicle lhumerus
    lhumerus lradius
    lradius lwrist
    lwrist lhand lthumb
    lhand lfingers
    rclavicle rhumerus
    rhumerus rradius
    rradius rwrist
    rwrist rhand rthumb
    rhand rfingers
  end

#!OML:ASF H:\ManfredObstacles\Project 1\Capture day 2\Session 1\male.ASF
:FULLY-SPECIFIED
:DEGREES
1
root 1.56559 16.285 28.8419 -170.183 1.74908 178.861
lowerback -6.35539 6.77838 -3.82334
upperback -0.143058 9.50387 -2.66408
thorax 3.22383 4.7282 0.20378
lowerneck -38.2916 -4.50938 -2.80449
upperneck 41.625 -10.0379 3.27954
head 27.0443 -3.95203 -1.19129
rclavicle -2.10712e-014 1.51076e-014
rhumerus -34.4161 28.7041 -100.009
rradius 97.1453
rwrist 6.70488
rhand -9.73004 0.502333
rfingers 7.12502
rthumb 16.2436 -28.8372
lclavicle -2.10712e-014 1.51076e-014
lhumerus -78.0452 -29.9356 91.9674
lradius 103.712
lwrist -17.065
lhand -13.6626 2.62668
lfingers 7.12502
lthumb 12.4545 32.2356
rfemur 10.0009 0.20275 21.979
rtibia 29.7971
rfoot 32.5213 -13.1268
rtoes -15.1005
lfemur -43.4814 -7.0166 -15.2541
ltibia 32.3499
lfoot 18.7438 6.39657
ltoes -7.69271
2
root 1.55714 16.301 28.4527 -170.25 1.94058 178.81
lowerback -6.4007 6.8908 -3.78016
upperback -0.399122 9.66792 -2.89061
thorax 3.02627 4.82662 -0.0477625
lowerneck -37.929 -4.75139 -3.34346
upperneck 41.679 -10.4516 3.79513
head 27.1663 -4.1445 -0.923136
rclavicle 8.70677e-014 3.18055e-015
rhumerus -35.042 28.6735 -100.567
rradius 97.0283
rwrist 6.36648
rhand -9.35582 0.388596
rfingers 7.12502
rthumb 16.6039 -28.9211
lclavicle 8.70677e-014 3.18055e-015
lhumerus -78.7064 -30.0145 91.6832
lradius 104.2
lwrist -16.8445
lhand -13.8457 2.64249
lfingers 7.12502
lthumb 12.2779 32.2621
rfemur 10.4915 0.134184 21.7308
rtibia 30.9422
rfoot 33.2227 -16.0526
rtoes -14.3075
lfemur -43.0492 -7.25993 -15.0136
ltibia 29.4866
lfoot 18.2287 5.75188
ltoes -9.78348
3
root 1.54743 16.2968 28.0711 -170.398 2.01054 178.767
lowerback -6.469 6.9401 -3.78543
upperback -0.547823 9.7476 -3.0143
thorax 2.92954 4.87547 -0.165552
lowerneck -37.6815 -4.85961 -3.65665
upperneck 41.9077 -10.7253 4.03225
head 27.4616 -4.28777 -0.830597
rclavicle 5.60573e-014 2.0276e-014
rhumerus -35.5384 28.4688 -100.841
rradius 96.6927
rwrist 6.58741
rhand -8.99102 0.596189
rfingers 7.12502
rthumb 16.9551 -28.6838
lclavicle 5.60573e-014 2.0276e-014
lhumerus -79.0792 -29.9412 91.5067
lradius 104.491
lwrist -17.0417
lhand -14.0559 2.7483
lfingers 7.12502
lthumb 12.0752 32.3799
rfemur 10.6653 -0.00473942 21.5296
rtibia 32.9697
rfoot 32.0574 -18.2571
rtoes -14.2821
lfemur -42.999 -7.51847 -14.8403
ltibia 28.0696
lfoot 20.3877 5.07959
ltoes -10.921
4
root 1.52916 16.2526 27.6939 -170.908 2.03912 178.94
lowerback -6.41421 6.94507 -3.65719
upperback -0.444295 9.72309 -2.80327
thorax 2.99033 4.85475 -0.0221156
lowerneck -37.6477 -4.78257 -3.64721
upperneck 41.9475 -10.4903 3.84561
head 27.4284 -4.23842 -0.865394
rclavicle -2.49972e-014 1.43125e-014
rhumerus -36.2829 28.1095 -100.912
rradius 96.2383
rwrist 6.19705
rhand -9.01322 0.3538
rfingers 7.12502
rthumb 16.9337 -28.928
lclavicle -2.49972e-014 1.43125e-014
lhumerus -79.0455 -29.4669 91.5939
lradius 104.58
lwrist -17.2849
lhand -14.257 2.69389
lfingers 7.12502
lthumb 11.8813 32.3368
rfemur 11.0216 0.0867758 21.569
rtibia 35.0354
rfoot 30.9714 -17.6122
rtoes -14.5928
lfemur -41.852 -7.12388 -15.0897
ltibia 26.7269
lfoot 22.8194 4.96295
ltoes -11.9123
5
root 1.51343 16.2064 27.3174 -171.324 2.06164 179.078
lowerback -6.37133 6.927 -3.53838
upperback -0.419678 9.67591 -2.6709
thorax 2.98882 4.82833 0.0408766
lowerneck -37.4907 -4.74944 -3.78992
upperneck 42.0299 -10.3776 3.83278
head 27.467 -4.24658 -0.810774
rclavicle -2.87741e-014 -2.34566e-014
rhumerus -36.989 27.7881 -101.057
rradius 95.7801
rwrist 6.05271
rhand -8.90029 0.238186
rfingers 7.12502
rthumb 17.0424 -29.0343
lclavicle -2.87741e-014 -2.34566e-014
lhumerus -79.1402 -29.0096 91.593
lradius 104.729
lwrist -17.4629
lhand -14.4608 2.68181
lfingers 7.12502
lthumb 11.6848 32.336
rfemur 11.1678 0.104286 21.5771
rtibia 37.4538
rfoot 29.8553 -17.9086
rtoes -14.9263
lfemur -41.3292 -6.82541 -15.2688
ltibia 26.1682
lfoot 24.9729 5.20023
ltoes -11.9948
6
root 1.49638 16.1437 26.9437 -171.821 2.03732 179.267
lowerback -6.29837 6.85644 -3.39052
upperback -0.337595 9.54904 -2.45232
thorax 3.02146 4.7586 0.169508
lowerneck -37.334 -4.66586 -3.91464
upperneck 42.1022 -10.1504 3.768
head 27.4677 -4.22182 -0.750358
rclavicle -1.35174e-013 4.29375e-014
rhumerus -37.7631 27.3783 -101.123
rradius 95.2301
rwrist 5.91107
rhand -8.87724 0.0732324
rfingers 7.12502
rthumb 17.0646 -29.1973
lclavicle -1.35174e-013 4.29375e-014
lhumerus -79.1099 -28.377 91.6542
lradius 104.801
lwrist -17.6675
lhand -14.6768 2.64483
lfingers 7.12502
lthumb 11.4765 32.3107
rfemur 11.1781 0.106921 21.6472
rtibia 40.2203
rfoot 28.6028 -17.6603
rtoes -15.5751
lfemur -40.8104 -6.22034 -15.6712
ltibia 26.4264
lfoot 26.7101 5.56354
ltoes -11.4863
7
root 1.47845 16.0654 26.5727 -172.379 1.96565 179.476
lowerback -6.19341 6.7325 -3.23227
upperback -0.219782 9.34645 -2.18323
thorax 3.06842 4.64967 0.33622
lowerneck -37.1819 -4.53784 -4.01274
upperneck 42.1578 -9.83201 3.66672
head 27.4286 -4.16735 -0.6845
rclavicle -1.86013e-013 6.16232e-014
rhumerus -38.6204 26.8557 -101.132
rradius 94.6019
rwrist 5.76803
rhand -8.92311 -0.144653
rfingers 7.12502
rthumb 17.0205 -29.419
lclavicle -1.86013e-013 6.16232e-014
lhumerus -78.9727 -27.6055 91.751
lradius 104.801
lwrist -17.8645
lhand -14.9002 2.60102
lfingers 7.12502
lthumb 11.2611 32.2788
rfemur 11.0679 0.0533618 21.7312
rtibia 43.2344
rfoot 27.4125 -17.1148
rtoes -16.4226
lfemur -40.1963 -5.31913 -16.2998
ltibia 27.2208
lfoot 27.4479 5.72677
ltoes -10.926
8
root 1.46017 15.9728 26.205 -172.976 1.84126 179.662
lowerback -6.05197 6.55723 -3.09881
upperback -0.0872136 9.0768 -1.90041
thorax 3.10681 4.50751 0.521407
lowerneck -37.0289 -4.39269 -4.13418
upperneck 42.2267 -9.48828 3.58254
head 27.4101 -4.10905 -0.596863
rclavicle 2.08724e-015 1.19271e-014
rhumerus -39.569 26.1902 -101.087
rradius 93.9007
rwrist 5.75742
rhand -9.0538 -0.405907
rfingers 7.12502
rthumb 16.8946 -29.691
lclavicle 2.08724e-015 1.19271e-014
lhumerus -78.7368 -26.7452 91.8738
lradius 104.727
lwrist -18.0286
lhand -15.1276 2.56458
lfingers 7.12502
lthumb 11.0417 32.2542
rfemur 10.7892 -0.100288 21.7674
rtibia 46.5419
rfoot 26.2794 -16.5226
rtoes -17.3782
lfemur -39.5853 -4.24413 -17.1058
ltibia 28.6888
lfoot 26.7717 5.39351
ltoes -10.565
9
root 1.44098 15.8663 25.8396 -173.623 1.69347 179.785
lowerback -5.85491 6.35358 -2.99819
upperback 0.0501076 8.77393 -1.65131
thorax 3.12199 4.35045 0.681658
lowerneck -36.8811 -4.23145 -4.23568
upperneck 42.3267 -9.16973 3.52288
head 27.438 -4.0551 -0.509889
rclavicle 8.24956e-014 2.18663e-014
rhumerus -40.6225 25.3353 -101.014
rradius 93.1371
rwrist 5.8643
rhand -9.28839 -0.735871
rfingers 7.12502
rthumb 16.6688 -30.0402
lclavicle 8.24956e-014 2.18663e-014
lhumerus -78.4126 -25.8745 91.988
lradius 104.577
lwrist -18.1735
lhand -15.3674 2.5431
lfingers 7.12502
lthumb 10.8104 32.2449
rfemur 10.3703 -0.353327 21.6869
rtibia 50.1018
rfoot 25.2768 -16.0156
rtoes -18.293
lfemur -38.9238 -3.14747 -18.0159
ltibia 30.7049
lfoot 24.7185 4.73796
ltoes -10.747
10
root 1.42071 15.75 25.4772 -174.312 1.51796 179.817
lowerback -5.57094 6.11533 -2.9482
upperback 0.168913 8.42984 -1.45222
thorax 3.07266 4.17554 0.804834
lowerneck -36.6827 -4.04608 -4.33822
upperneck 42.4538 -8.87592 3.52576
head 27.4916 -4.00873 -0.394586
rclavicle -7.42958e-015 2.78299e-015
rhumerus -41.8086 24.2909 -100.92
rradius 92.3093
rwrist 6.12797
rhand -9.59711 -1.07673
rfingers 7.12502
rthumb 16.3716 -30.4058
lclavicle -7.42958e-015 2.78299e-015
lhumerus -78.0185 -24.9816 92.0926
lradius 104.34
lwrist -18.2955
lhand -15.5904 2.53842
lfingers 7.12502
lthumb 10.5952 32.2513
rfemur 9.8175 -0.708998 21.4519
rtibia 53.8604
rfoot 24.4329 -15.6837
rtoes -19.0921
lfemur -38.226 -2.21162 -18.9447
ltibia 33.1479
lfoot 21.5912 4.65247
ltoes -11.2669
11
root 1.39943 15.6274 25.1182 -175.038 1.31321 179.747
lowerback -5.22347 5.86257 -2.95808
upperback 0.289657 8.0737 -1.31888
thorax 2.99328 3.99614 0.887868
lowerneck -36.4195 -3.83508 -4.34999
upperneck 42.5686 -8.62351 3.54719
head 27.4951 -3.96026 -0.297532
rclavicle -1.24539e-013 -1.07344e-014
rhumerus -43.0637 23.0168 -100.755
rradius 91.3985
rwrist 6.61731
rhand -9.99273 -1.4444
rfingers 7.12502
rthumb 15.9907 -30.8044
lclavicle -1.24539e-013 -1.07344e-014
lhumerus -77.5071 -24.1304 92.1751
lradius 104.009
lwrist -18.4061
lhand -15.7806 2.57819
lfingers 7.12502
lthumb 10.4118 32.3004
rfemur 9.14047 -1.14583 21.0549
rtibia 57.7662
rfoot 23.7254 -15.6013
rtoes -19.6882
lfemur -37.5129 -1.59692 -19.8298
ltibia 35.8797
lfoot 18.0693 5.98947
ltoes -11.0887
